<?xml version="1.0" encoding="iso-8859-1"?>
<!-- Generator: Adobe Illustrator 16.0.0, SVG Export Plug-In . SVG Version: 6.00 Build 0)  -->
<!DOCTYPE svg PUBLIC "-//W3C//DTD SVG 1.1//EN" "http://www.w3.org/Graphics/SVG/1.1/DTD/svg11.dtd">
<svg version="1.1" id="Capa_1" xmlns="http://www.w3.org/2000/svg" xmlns:xlink="http://www.w3.org/1999/xlink" x="0px" y="0px"
	 width="594.64px" height="594.639px" viewBox="0 0 594.64 594.639" style="enable-background:new 0 0 594.64 594.639;"
	 xml:space="preserve">
<g>
	<g>
		<path d="M0.5,178.862c0,32.059,26.082,58.14,58.14,58.14h34.562l180.511,239.485c5.39,7.15,12.475,13.043,20.489,17.037
			c8.014,3.996,16.983,6.107,25.939,6.107h215.856c32.059,0,58.141-26.082,58.141-58.141v-22.764
			c0-32.057-26.082-58.139-58.141-58.139H369.625l-180.51-239.485c-5.39-7.151-12.475-13.042-20.489-17.038
			c-8.015-3.995-16.983-6.107-25.939-6.107H58.64c-32.059,0-58.14,26.082-58.14,58.14V178.862z M43.34,156.099
			c0-8.45,6.85-15.3,15.3-15.3h84.046c4.803,0,9.327,2.255,12.218,6.09l188.774,250.447c2.892,3.836,7.415,6.092,12.218,6.092
			h180.104c8.449,0,15.3,6.85,15.3,15.299v22.764c0,8.449-6.851,15.301-15.3,15.301H320.143c-4.803,0-9.327-2.256-12.218-6.092
			L119.15,200.252c-2.891-3.835-7.415-6.09-12.218-6.09H58.64c-8.45,0-15.3-6.85-15.3-15.3V156.099z"/>
		<path d="M535.999,500.131H320.143c-9.034,0-18.081-2.13-26.163-6.16c-8.082-4.027-15.228-9.97-20.666-17.184L92.954,237.502H58.64
			c-32.334,0-58.64-26.306-58.64-58.64v-22.764c0-32.334,26.306-58.64,58.64-58.64h84.046c9.032,0,18.078,2.13,26.162,6.16
			c8.083,4.03,15.229,9.972,20.666,17.185l180.36,239.286h166.125c32.335,0,58.641,26.306,58.641,58.639v22.764
			C594.64,473.826,568.334,500.131,535.999,500.131z M58.64,98.458C26.857,98.458,1,124.315,1,156.098v22.764
			c0,31.783,25.857,57.64,57.64,57.64h34.812l0.15,0.199l180.511,239.485c5.345,7.091,12.369,12.932,20.313,16.891
			c7.944,3.961,16.836,6.055,25.716,6.055h215.856c31.783,0,57.641-25.857,57.641-57.641v-22.764
			c0-31.782-25.857-57.639-57.641-57.639H369.376l-0.15-0.199l-180.51-239.485c-5.344-7.089-12.368-12.93-20.313-16.892
			c-7.946-3.96-16.838-6.054-25.716-6.054H58.64z M536.001,457.292H320.143c-4.932,0-9.648-2.352-12.617-6.291L118.75,200.553
			c-2.78-3.689-7.199-5.891-11.819-5.891H58.64c-8.712,0-15.8-7.088-15.8-15.8v-22.763c0-8.712,7.088-15.8,15.8-15.8h84.046
			c4.932,0,9.649,2.351,12.617,6.29l188.774,250.447c2.781,3.689,7.199,5.893,11.818,5.893h180.104c8.712,0,15.8,7.087,15.8,15.799
			v22.764C551.801,450.204,544.713,457.292,536.001,457.292z M58.64,141.299c-8.161,0-14.8,6.639-14.8,14.8v22.763
			c0,8.161,6.639,14.8,14.8,14.8h48.292c4.932,0,9.649,2.351,12.618,6.29l188.775,250.447c2.78,3.689,7.198,5.893,11.818,5.893
			h215.858c8.16,0,14.8-6.64,14.8-14.801v-22.764c0-8.16-6.64-14.799-14.8-14.799H355.896c-4.931,0-9.647-2.352-12.617-6.291
			L154.505,147.19c-2.78-3.689-7.198-5.891-11.818-5.891H58.64z"/>
	</g>
	
</g>
<g>
</g>
<g>
</g>
<g>
</g>
<g>
</g>
<g>
</g>
<g>
</g>
<g>
</g>
<g>
</g>
<g>
</g>
<g>
</g>
<g>
</g>
<g>
</g>
<g>
</g>
<g>
</g>
<g>
</g>
</svg>
