<?xml version="1.0" encoding="iso-8859-1"?>
<!-- Generator: Adobe Illustrator 16.0.0, SVG Export Plug-In . SVG Version: 6.00 Build 0)  -->
<!DOCTYPE svg PUBLIC "-//W3C//DTD SVG 1.1//EN" "http://www.w3.org/Graphics/SVG/1.1/DTD/svg11.dtd">
<svg version="1.1" id="Capa_1" xmlns="http://www.w3.org/2000/svg" xmlns:xlink="http://www.w3.org/1999/xlink" x="0px" y="0px"
	 width="185.221px" height="185.222px" viewBox="0 0 185.221 185.222" style="enable-background:new 0 0 185.221 185.222;"
	 xml:space="preserve">
<g>
	<g>
		<circle cx="55.136" cy="37.154" r="12.103"/>
		<circle cx="21.517" cy="51.283" r="12.104"/>
		<path d="M8.071,162.894c0,5.92,4.839,10.763,10.757,10.763h5.38c5.915,0,10.754-4.843,10.754-10.763v-38.787
			c4.738-2.088,8.07-6.824,8.07-12.312V80.862c0-7.394-6.05-13.445-13.446-13.445H13.446C6.049,67.417,0,73.469,0,80.862v30.932
			c0,5.485,3.333,10.232,8.071,12.312V162.894z"/>
		<path d="M135.107,29.461c3.467,0,6.276,2.81,6.276,6.276s-2.81,6.276-6.276,6.276c-3.463,0-6.276-2.81-6.276-6.276
			S131.644,29.461,135.107,29.461z"/>
		<path d="M42.229,129.514v21.765c0.761,5.188,5.212,9.216,10.602,9.216h5.378c5.915,0,10.759-4.842,10.759-10.759v-38.791
			c4.738-2.091,8.069-6.83,8.069-12.315V67.697c0-7.396-6.052-13.445-13.446-13.445H47.452c-2.534,0-4.878,0.749-6.908,1.979
			c-0.493,2.673-1.524,5.161-3.013,7.316c7.471,3.003,12.773,10.303,12.773,18.836v30.93
			C50.301,119.757,47.238,125.715,42.229,129.514z"/>
		<path d="M146.263,51.076c0-3.833-3.135-6.971-6.971-6.971h-8.367c-0.832,0-1.622,0.173-2.361,0.447v8.066h-4.613v1.637h-3.227
			v-2.909h6.409v-12.9h-17.979v12.9h6.406v2.909H79.131c2.719,3.455,4.408,7.758,4.408,12.484v30.935
			c0,2.765-0.592,5.431-1.636,7.885h103.318V54.252h-38.958V51.076z"/>
		<path d="M79.533,31.528h29.613V11.565H79.533V31.528z M88.921,15.224h15.77v2.391h-15.77V15.224z M88.921,24.012h15.77v2.391
			h-15.77V24.012z M82.144,14.067h3.26v4.692h-3.26V14.067z M82.144,22.86h3.26v4.695h-3.26V22.86z"/>
		<path d="M83.367,14.753l-0.809,2.661h0.619l0.19-0.68h0.76l0.207,0.68h0.656l-0.83-2.661H83.367z M83.455,16.277l0.157-0.562
			c0.046-0.147,0.084-0.354,0.124-0.512h0.007c0.039,0.161,0.083,0.357,0.137,0.512l0.165,0.562H83.455z"/>
		<path d="M83.367,23.88l-0.809,2.656h0.619l0.19-0.681h0.76l0.207,0.681h0.656l-0.83-2.656H83.367z M83.455,25.403l0.157-0.563
			c0.046-0.147,0.084-0.354,0.124-0.515h0.007c0.039,0.161,0.083,0.356,0.137,0.515l0.165,0.563H83.455z"/>
		<path d="M180.109,11.565h-29.616v19.963h29.616V11.565z M156.366,27.556h-3.258V22.86h3.258V27.556z M156.366,18.759h-3.258
			v-4.692h3.258V18.759z M175.653,26.402h-15.77v-2.391h15.77V26.402z M175.653,17.61h-15.77v-2.39h15.77V17.61z"/>
		<path d="M154.33,16.731h0.76l0.208,0.679h0.654l-0.832-2.661h-0.787l-0.808,2.661h0.616L154.33,16.731z M154.572,15.715
			c0.049-0.147,0.086-0.354,0.124-0.512h0.007c0.041,0.161,0.085,0.357,0.137,0.512l0.164,0.562h-0.589L154.572,15.715z"/>
		<path d="M154.33,25.854h0.76l0.208,0.681h0.654l-0.832-2.656h-0.787l-0.808,2.656h0.616L154.33,25.854z M154.572,24.84
			c0.049-0.147,0.086-0.354,0.124-0.515h0.007c0.041,0.161,0.085,0.356,0.137,0.515l0.164,0.563h-0.589L154.572,24.84z"/>
	</g>
</g>
<g>
</g>
<g>
</g>
<g>
</g>
<g>
</g>
<g>
</g>
<g>
</g>
<g>
</g>
<g>
</g>
<g>
</g>
<g>
</g>
<g>
</g>
<g>
</g>
<g>
</g>
<g>
</g>
<g>
</g>
</svg>
